<svg width="61" height="60" viewBox="0 0 61 60" fill="none" xmlns="http://www.w3.org/2000/svg">
<g clip-path="url(#clip0_6108_2735)">
<g clip-path="url(#clip1_6108_2735)">
<path d="M13.8111 23.8389C13.9636 24.1286 13.8873 24.3727 13.7806 24.632C13.6128 25.059 13.6586 25.4708 13.9636 25.8216C14.2686 26.1876 14.6957 26.2334 15.138 26.1419C15.7481 26.0046 16.0989 25.4251 16.0074 24.7845C15.9616 24.4794 15.7786 24.1744 15.9463 23.8389C15.7938 23.9151 15.7938 23.9151 15.6108 24.2202C15.443 24.0219 15.2905 23.8083 15.1075 23.5948C14.955 23.4271 14.8025 23.2745 14.894 23C14.7109 23.0915 14.6194 23.2135 14.5584 23.366C14.5127 23.5186 14.4822 23.6711 14.4517 23.8236C14.4212 23.9761 14.3449 24.1134 14.1924 24.2049C14.1009 24.0371 14.0094 23.9151 13.8111 23.8389Z" fill="#3D7FFC"/>
<path d="M0.829187 32.727V25.6923L0 25.5558V24.9044L2.16218 24.6312L2.52955 24.5791V24.8623V27.2531C2.61351 27.1691 2.71848 27.0745 2.84443 27.001C2.95988 26.9169 3.09633 26.8434 3.23278 26.7803C3.37973 26.7173 3.52667 26.6647 3.69461 26.6227C3.86254 26.5807 4.04098 26.5597 4.22991 26.5597C4.56578 26.5597 4.88066 26.6122 5.17455 26.7278C5.46844 26.8434 5.73084 27.022 5.95126 27.2636C6.17167 27.5158 6.35011 27.831 6.48655 28.2302C6.61251 28.6295 6.68598 29.1022 6.68598 29.6801C6.68598 30.1739 6.61251 30.6257 6.46556 31.0565C6.31862 31.4872 6.0982 31.8444 5.81481 32.1596C5.53142 32.4748 5.18505 32.7165 4.7862 32.8951C4.37685 33.0737 3.92552 33.1683 3.41121 33.1683C3.05435 33.1683 2.72897 33.1472 2.42459 33.1157C2.1307 33.0842 1.8683 33.0422 1.64788 32.9897C1.42746 32.9371 1.24903 32.8951 1.11258 32.8426C0.976132 32.79 0.871172 32.7585 0.829187 32.727ZM3.52667 27.5788C3.29576 27.5788 3.09633 27.6208 2.9284 27.7049C2.76046 27.7889 2.62401 27.8835 2.52955 27.9886V32.1491C2.58203 32.2332 2.67649 32.3067 2.82344 32.3488C2.97038 32.4013 3.14881 32.4223 3.33774 32.4223C3.58965 32.4223 3.81006 32.3593 3.9885 32.2227C4.17743 32.0861 4.32437 31.9075 4.45032 31.6763C4.57628 31.4452 4.66024 31.172 4.72322 30.8673C4.7862 30.5627 4.81768 30.2264 4.81768 29.8797C4.81768 29.5225 4.79669 29.1968 4.74421 28.9026C4.69173 28.619 4.61826 28.3773 4.5028 28.1777C4.39784 27.9781 4.26139 27.831 4.09346 27.7259C3.94651 27.6313 3.74709 27.5788 3.52667 27.5788Z" fill="#3D7FFC"/>
<path d="M7.60229 32.9808V32.2348L8.39999 32.1298V27.8641L7.64428 27.633V26.7925L9.53357 26.5193H9.56506L9.85894 26.7609V27.2232L9.84845 28.0848H9.86944C9.91142 27.9692 9.99539 27.8221 10.1108 27.6435C10.2263 27.4649 10.3732 27.2863 10.5412 27.1182C10.7091 26.9501 10.9085 26.803 11.129 26.6874C11.3494 26.5718 11.5908 26.5088 11.8532 26.5088C11.9686 26.5088 12.0526 26.5088 12.1156 26.5193C12.1786 26.5298 12.231 26.5403 12.273 26.5508V28.4735C12.231 28.442 12.1261 28.4105 11.9582 28.3789C11.7902 28.3474 11.5803 28.3264 11.3494 28.3264C11.2234 28.3264 11.087 28.3369 10.961 28.3474C10.8351 28.3579 10.7091 28.3789 10.5937 28.4105C10.4782 28.4315 10.3837 28.463 10.2893 28.4945C10.1948 28.526 10.1318 28.5576 10.0794 28.5891V32.1193L11.4543 32.2558V32.9808H7.60229Z" fill="#3D7FFC"/>
<path d="M13.4502 33.0421V32.2962L14.2584 32.1911V27.9255L13.5132 27.6838V26.8538L15.5494 26.5806L15.9797 26.5381V26.8223V32.1806L16.7774 32.2962V33.0421H13.4502Z" fill="#3D7FFC"/>
<path d="M20.4781 30.9929C20.1629 30.9929 19.8695 30.971 19.6087 30.9272C19.5435 30.9929 19.4891 31.0694 19.4457 31.1569C19.4022 31.2444 19.3805 31.3428 19.3805 31.4631C19.3805 31.5944 19.4022 31.7038 19.4565 31.7912C19.5109 31.8678 19.587 31.9334 19.6956 31.9772C19.8043 32.0209 19.9347 32.0537 20.1086 32.0647C20.2824 32.0756 20.4781 32.0865 20.7063 32.0865H21.8473C22.6732 32.0865 23.2818 32.2287 23.6947 32.5021C24.0968 32.7865 24.3033 33.2458 24.3033 33.8802C24.3033 34.263 24.2055 34.6239 23.999 34.941C23.8034 35.2582 23.5317 35.5207 23.1839 35.7504C22.8471 35.9691 22.445 36.1441 21.9994 36.2644C21.5539 36.3847 21.0866 36.4503 20.5976 36.4503H20.5867C20.0434 36.4503 19.587 36.4066 19.2066 36.3081C18.8263 36.2097 18.5111 36.0785 18.2612 35.9144C18.0112 35.7504 17.8374 35.5426 17.7178 35.3129C17.5983 35.0832 17.5439 34.8207 17.5439 34.5473C17.5439 34.3723 17.5765 34.2083 17.6417 34.0442C17.707 33.8911 17.7939 33.7489 17.9026 33.6177C18.0112 33.4864 18.1308 33.3771 18.2829 33.2786C18.4242 33.1802 18.5763 33.1037 18.7285 33.049C18.5111 32.9287 18.3372 32.7865 18.2177 32.6115C18.0982 32.4365 18.0438 32.2287 18.0438 31.9881C18.0438 31.6928 18.1199 31.4522 18.272 31.2444C18.4242 31.0475 18.6198 30.8616 18.8589 30.7085C18.4676 30.5335 18.1851 30.282 18.0004 29.9539C17.8156 29.6258 17.7178 29.243 17.7178 28.8055C17.7178 28.4555 17.7939 28.1493 17.946 27.8649C18.0982 27.5806 18.3155 27.34 18.5763 27.1431C18.848 26.9463 19.1523 26.7931 19.5109 26.6838C19.8695 26.5744 20.2498 26.5197 20.6519 26.5197H20.6628C21.6191 26.5197 22.3255 26.7057 22.7927 27.0775C22.8471 27.0119 22.9231 26.9463 23.0101 26.8806C23.097 26.815 23.2057 26.7494 23.3252 26.6947C23.4448 26.64 23.5752 26.5963 23.7164 26.5635C23.8577 26.5307 24.0098 26.5088 24.1729 26.5088H24.4445V27.7993H23.3144C23.3578 27.9196 23.3904 28.0509 23.4122 28.1821C23.4339 28.3134 23.4448 28.4665 23.4448 28.6196C23.4448 28.9696 23.3687 29.2867 23.2274 29.5711C23.0861 29.8554 22.8797 30.107 22.6189 30.3257C22.3581 30.5335 22.0429 30.6976 21.6843 30.8179C21.3148 30.9382 20.9236 30.9929 20.4781 30.9929ZM20.1846 33.3224C19.9347 33.3224 19.7065 33.3005 19.5 33.2677C19.4239 33.3552 19.3479 33.4646 19.2827 33.5958C19.2175 33.7271 19.1849 33.9239 19.1849 34.1536C19.1849 34.4161 19.2175 34.6348 19.2827 34.8098C19.3479 34.9848 19.4565 35.1379 19.587 35.2473C19.7174 35.3566 19.8912 35.4441 20.0868 35.4879C20.2824 35.5426 20.5107 35.5644 20.7715 35.5644H20.7823C21.0105 35.5644 21.2387 35.5426 21.467 35.4879C21.6843 35.4332 21.8908 35.3566 22.0646 35.2473C22.2385 35.1379 22.3798 34.9957 22.4776 34.8317C22.5863 34.6676 22.6406 34.4708 22.6406 34.252C22.6406 34.088 22.6189 33.9349 22.5863 33.8145C22.5537 33.6942 22.4885 33.5958 22.3907 33.5193C22.2929 33.4427 22.1733 33.388 22.0103 33.3552C21.8473 33.3224 21.6408 33.3005 21.3909 33.3005H20.1846V33.3224ZM20.6193 30.2273C20.8149 30.2273 20.9779 30.1835 21.1083 30.107C21.2387 30.0304 21.3365 29.9211 21.4126 29.7898C21.4887 29.6586 21.5322 29.4945 21.5648 29.3086C21.5974 29.1227 21.6082 28.9258 21.6082 28.729C21.6082 28.2259 21.5322 27.854 21.3692 27.6243C21.2061 27.3947 20.9453 27.2853 20.565 27.2853H20.5541C20.1955 27.2853 19.9347 27.4056 19.7717 27.6353C19.6087 27.8649 19.5218 28.204 19.5218 28.6743C19.5218 28.9039 19.5435 29.1117 19.5761 29.2977C19.6087 29.4836 19.6739 29.6476 19.75 29.7898C19.8369 29.9211 19.9456 30.0304 20.0868 30.107C20.2281 30.1835 20.402 30.2273 20.6193 30.2273Z" fill="#3D7FFC"/>
<path d="M25.0593 33.042V32.296L25.7415 32.1804V25.6315L24.9124 25.4949V24.8435L27.064 24.5703L27.1891 24.5493H27.423L27.4419 26.591L27.423 27.3859C27.5175 27.2913 27.5783 27.2844 27.7358 27.1793C27.8932 27.0743 28.0507 26.9797 28.2396 26.8957C28.4285 26.8116 28.6384 26.7381 28.8589 26.675C29.0793 26.6225 29.3207 26.591 29.5621 26.591C29.919 26.591 30.2234 26.6435 30.4543 26.7381C30.6852 26.8326 30.8741 26.9902 31.0211 27.2004C31.168 27.4105 31.252 27.6731 31.3149 27.9883C31.3674 28.3035 31.3989 28.6818 31.3989 29.1125V32.1804L32.1756 32.296V33.042H29.0793V32.317L29.6985 32.1909V29.102C29.6985 28.8499 29.6881 28.6292 29.6566 28.4401C29.6356 28.251 29.5831 28.1039 29.5096 27.9778C29.4362 27.8518 29.3417 27.7677 29.2157 27.7152C29.0898 27.6626 28.9218 27.6311 28.7224 27.6311C28.607 27.6311 28.4915 27.6416 28.3656 27.6731C28.2396 27.7047 28.1241 27.7362 28.0192 27.7677C27.9037 27.8097 27.7988 27.8518 27.7043 27.9043C27.6098 27.9568 27.5259 28.0094 27.4524 28.0619V32.1909L28.2081 32.3065V33.0525H25.0593V33.042Z" fill="#3D7FFC"/>
<path d="M33.4083 31.7561V27.6796H32.6316V27.0492C32.6631 27.0387 32.7051 27.0282 32.768 27.0071C32.831 26.9861 32.894 26.9546 32.9675 26.9336C33.0304 26.9126 33.0934 26.8811 33.1564 26.8601C33.2194 26.839 33.2509 26.818 33.2614 26.8075C33.3873 26.713 33.5133 26.5344 33.6497 26.2717C33.6917 26.1981 33.7232 26.1141 33.7757 26.009C33.8281 25.904 33.8596 25.8094 33.9016 25.7043C33.9436 25.5993 33.9856 25.4942 34.0171 25.3891C34.0591 25.2841 34.08 25.1895 34.1115 25.1055H35.0982L35.1192 26.7445H36.746V27.6901H35.1192V30.758C35.1192 31.0521 35.1192 31.2833 35.1296 31.4619C35.1401 31.6405 35.1611 31.7666 35.1926 31.8506C35.2241 31.9347 35.2871 31.9977 35.3606 32.0187C35.434 32.0398 35.539 32.0608 35.6649 32.0608H35.6754C35.7594 32.0608 35.8539 32.0503 35.9588 32.0398C36.0533 32.0292 36.1478 32.0082 36.2422 31.9872C36.3367 31.9662 36.4207 31.9452 36.5046 31.9242C36.5886 31.9032 36.6516 31.8822 36.7041 31.8611H36.7146L36.977 32.5125C36.8615 32.5966 36.7355 32.6806 36.5676 32.7647C36.3997 32.8488 36.2317 32.9223 36.0323 32.9958C35.8329 33.0694 35.6335 33.1219 35.413 33.1639C35.1926 33.206 34.9827 33.227 34.7623 33.227H34.7518C34.5104 33.227 34.3005 33.1955 34.1325 33.1324C33.9646 33.0694 33.8176 32.9748 33.7127 32.8488C33.6077 32.7227 33.5343 32.5756 33.4818 32.3865C33.4293 32.1974 33.4083 31.9977 33.4083 31.7561Z" fill="#3D7FFC"/>
<path d="M41.7754 33.2008C41.45 33.2008 41.1351 33.1377 40.8308 33.0117C40.5264 32.8856 40.264 32.686 40.0436 32.4338C39.8126 32.1711 39.6342 31.8454 39.4978 31.4567C39.3613 31.068 39.2983 30.6057 39.2983 30.0698C39.2983 29.576 39.3718 29.1243 39.5188 28.704C39.6657 28.2837 39.8861 27.916 40.159 27.6008C40.4424 27.2856 40.7783 27.044 41.1771 26.8654C41.576 26.6868 42.0273 26.6027 42.5311 26.6027C42.7096 26.6027 42.8775 26.6132 43.0559 26.6342C43.2239 26.6552 43.3918 26.6762 43.5492 26.7078V25.5421L42.4576 25.4371V24.9118L44.4939 24.6701H44.5254L44.7983 24.6372V32.4128H45.4595V33.0012C45.3021 33.0432 45.1236 33.0852 44.9137 33.1377C44.7038 33.1903 44.4834 33.2113 44.2525 33.2113C44.158 33.2113 44.0635 33.2008 43.9901 33.1903C43.9166 33.1798 43.8536 33.1482 43.8011 33.1062C43.7487 33.0642 43.7067 33.0012 43.6857 32.9276C43.6647 32.8541 43.6437 32.749 43.6437 32.6229V32.3813C43.5492 32.4863 43.4338 32.5809 43.3078 32.686C43.1819 32.791 43.0454 32.8751 42.888 32.9486C42.7305 33.0222 42.5626 33.0852 42.3737 33.1377C42.1952 33.1693 41.9958 33.2008 41.7754 33.2008ZM42.2897 32.3498C42.4367 32.3498 42.5731 32.3287 42.7096 32.2972C42.8355 32.2552 42.9615 32.2132 43.0664 32.1606C43.1714 32.1081 43.2658 32.0451 43.3498 31.982C43.4338 31.919 43.5073 31.8559 43.5597 31.7929V27.5693C43.5387 27.5273 43.4863 27.4852 43.4233 27.4432C43.3498 27.4012 43.2763 27.3592 43.1714 27.3276C43.0769 27.2961 42.9615 27.2646 42.846 27.2541C42.7305 27.2331 42.6046 27.2226 42.4681 27.2226C42.2162 27.2226 41.9853 27.2646 41.7754 27.3592C41.555 27.4537 41.3661 27.6008 41.1981 27.8109C41.0302 28.0211 40.9042 28.2942 40.8098 28.6305C40.7153 28.9667 40.6628 29.3764 40.6523 29.8597C40.6418 30.2905 40.6838 30.6687 40.7678 30.9839C40.8518 31.2991 40.9672 31.5513 41.1142 31.7614C41.2611 31.961 41.4395 32.1186 41.639 32.2132C41.8384 32.2972 42.0588 32.3498 42.2897 32.3498Z" fill="#C6DBFF"/>
<path d="M45.614 31.4375C45.614 31.1748 45.6665 30.9332 45.761 30.723C45.8554 30.5129 45.9919 30.3343 46.1703 30.1662C46.3487 30.0086 46.5482 29.872 46.7791 29.7564C47.01 29.6409 47.2619 29.5568 47.5348 29.4833C47.8077 29.4097 48.0911 29.3572 48.385 29.3257C48.6789 29.2941 48.9728 29.2731 49.2561 29.2626V28.9684C49.2561 28.7058 49.2352 28.4851 49.2037 28.3065C49.1617 28.1279 49.0987 27.9808 49.0147 27.8653C48.9203 27.7497 48.8048 27.6656 48.6474 27.6236C48.5004 27.5711 48.301 27.5501 48.0701 27.5501C47.8707 27.5501 47.6712 27.5711 47.4718 27.6026C47.2724 27.6446 47.0835 27.6866 46.8945 27.7392C46.7161 27.7917 46.5482 27.8547 46.3907 27.9073C46.2333 27.9703 46.1073 28.0229 46.0024 28.0754H45.9919L45.74 27.5396C45.8134 27.4765 45.9289 27.3925 46.1073 27.2874C46.2858 27.1823 46.4957 27.0878 46.7371 26.9827C46.9785 26.8882 47.2409 26.8041 47.5138 26.7306C47.7972 26.657 48.0701 26.6255 48.343 26.6255C48.7313 26.6255 49.0567 26.6675 49.3296 26.7411C49.592 26.8251 49.8124 26.9512 49.9804 27.1193C50.1483 27.2979 50.2638 27.5185 50.3372 27.8022C50.4107 28.0859 50.4422 28.4221 50.4422 28.8319V32.4881H51.1244V33.0239C51.051 33.045 50.967 33.066 50.8725 33.087C50.7781 33.108 50.6731 33.129 50.5681 33.15C50.4632 33.171 50.3477 33.192 50.2428 33.2026C50.1378 33.2131 50.0224 33.2236 49.9279 33.2236C49.8229 33.2236 49.739 33.2236 49.655 33.2131C49.5815 33.2026 49.5185 33.1815 49.4661 33.1395C49.4136 33.0975 49.3821 33.045 49.3611 32.9609C49.3401 32.8874 49.3296 32.7823 49.3296 32.6457V32.4356C49.2771 32.4776 49.2037 32.5406 49.0987 32.6352C48.9937 32.7193 48.8573 32.8138 48.6999 32.8979C48.5424 32.9819 48.364 33.066 48.1541 33.129C47.9546 33.192 47.7342 33.2236 47.5033 33.2236C47.2514 33.2236 47.01 33.192 46.7791 33.1185C46.5482 33.045 46.3487 32.9399 46.1703 32.8033C45.9919 32.6562 45.8554 32.4776 45.7505 32.2465C45.6455 32.0153 45.614 31.7527 45.614 31.4375ZM47.9966 32.383C48.0701 32.383 48.1646 32.3725 48.2695 32.3515C48.3745 32.3305 48.4899 32.299 48.6054 32.2675C48.7208 32.2254 48.8363 32.1834 48.9413 32.1309C49.0567 32.0784 49.1512 32.0153 49.2456 31.9523V29.893C48.8048 29.893 48.4375 29.935 48.1331 30.0086C47.8392 30.0821 47.5978 30.1872 47.4193 30.3133C47.2409 30.4393 47.1149 30.5864 47.0415 30.7545C46.968 30.9226 46.926 31.0907 46.926 31.2694C46.926 31.469 46.9575 31.6476 47.01 31.7842C47.0625 31.9208 47.1359 32.0363 47.2304 32.1309C47.3249 32.2149 47.4403 32.2885 47.5663 32.32C47.7132 32.362 47.8497 32.383 47.9966 32.383Z" fill="#C6DBFF"/>
<path d="M51.441 31.7876V27.4484H50.6433V26.9231C50.7588 26.8811 50.8742 26.8495 50.9792 26.8075C51.0946 26.7655 51.1786 26.734 51.2206 26.6919C51.3465 26.6079 51.441 26.4713 51.5355 26.2717C51.567 26.2087 51.5985 26.1141 51.6509 26.009C51.6929 25.904 51.7349 25.7884 51.7769 25.6728C51.8189 25.5572 51.8609 25.4522 51.8923 25.3471C51.9238 25.2421 51.9553 25.158 51.9658 25.1055H52.6795V26.6394H54.5373V27.4484H52.6795V30.779C52.6795 31.1047 52.6795 31.3673 52.69 31.5565C52.7005 31.7456 52.7215 31.8822 52.7635 31.9662C52.8055 32.0503 52.8685 32.1133 52.9524 32.1343C53.0364 32.1553 53.1519 32.1658 53.2988 32.1658H53.3093C53.4143 32.1658 53.5297 32.1553 53.6452 32.1448C53.7606 32.1343 53.8761 32.1133 53.9811 32.0923C54.0965 32.0713 54.191 32.0503 54.2854 32.0292C54.3799 32.0082 54.4534 31.9872 54.5059 31.9557H54.5164L54.7053 32.502C54.6213 32.5651 54.4954 32.6386 54.3379 32.7122C54.1805 32.7857 54.0125 32.8488 53.8341 32.9118C53.6557 32.9748 53.4667 33.0169 53.2673 33.0589C53.0679 33.1009 52.8895 33.1219 52.711 33.1219H52.7005C52.5011 33.1219 52.3332 33.1009 52.1757 33.0589C52.0183 33.0169 51.8923 32.9433 51.7769 32.8382C51.6719 32.7332 51.588 32.5966 51.525 32.4285C51.4725 32.2394 51.441 32.0292 51.441 31.7876Z" fill="#C6DBFF"/>
<path d="M54.7368 31.3208C54.7368 31.0581 54.7893 30.8165 54.8838 30.6063C54.9782 30.3962 55.1147 30.2176 55.2931 30.0495C55.4715 29.8919 55.671 29.7553 55.9019 29.6397C56.1328 29.5242 56.3847 29.4401 56.6576 29.3666C56.9305 29.293 57.2139 29.2405 57.5078 29.209C57.8017 29.1774 58.0956 29.1564 58.3789 29.1459V28.8517C58.3789 28.5891 58.358 28.3684 58.3265 28.1898C58.2845 28.0112 58.2215 27.8641 58.1375 27.7486C58.0431 27.633 57.9276 27.5489 57.7702 27.5069C57.6232 27.4544 57.4238 27.4334 57.1929 27.4334C56.9935 27.4334 56.794 27.4544 56.5946 27.4859C56.3952 27.5279 56.2063 27.5699 56.0173 27.6225C55.8389 27.675 55.671 27.738 55.5135 27.7906C55.3561 27.8536 55.2301 27.9062 55.1252 27.9587H55.1147L54.8628 27.4229C54.9362 27.3598 55.0517 27.2758 55.2301 27.1707C55.4086 27.0656 55.6185 26.9711 55.8599 26.866C56.1013 26.7715 56.3637 26.6874 56.6366 26.6139C56.92 26.5403 57.1929 26.5088 57.4658 26.5088C57.8541 26.5088 58.1795 26.5508 58.4524 26.6244C58.7148 26.7084 58.9352 26.8345 59.1032 27.0026C59.2711 27.1812 59.3866 27.4018 59.46 27.6855C59.5335 27.9692 59.565 28.3054 59.565 28.7152V32.3714H60.2472V32.9072C60.1738 32.9283 60.0898 32.9493 59.9953 32.9703C59.9009 32.9913 59.7959 33.0123 59.6909 33.0333C59.586 33.0543 59.4705 33.0753 59.3656 33.0859C59.2606 33.0964 59.1452 33.1069 59.0507 33.1069C58.9457 33.1069 58.8618 33.1069 58.7778 33.0964C58.7043 33.0859 58.6413 33.0648 58.5889 33.0228C58.5364 32.9808 58.5049 32.9283 58.4839 32.8442C58.4629 32.7707 58.4524 32.6656 58.4524 32.529V32.3189C58.3999 32.3609 58.3265 32.4239 58.2215 32.5185C58.1165 32.6026 57.9801 32.6971 57.8227 32.7812C57.6652 32.8652 57.4868 32.9493 57.2769 33.0123C57.0774 33.0753 56.857 33.1069 56.6261 33.1069C56.3742 33.1069 56.1328 33.0753 55.9019 33.0018C55.671 32.9283 55.4715 32.8232 55.2931 32.6866C55.1147 32.5395 54.9782 32.3609 54.8733 32.1298C54.7683 31.8986 54.7368 31.636 54.7368 31.3208ZM57.1299 32.2663C57.2034 32.2663 57.2978 32.2558 57.4028 32.2348C57.5078 32.2138 57.6232 32.1823 57.7387 32.1508C57.8541 32.1088 57.9696 32.0667 58.0746 32.0142C58.19 31.9617 58.2845 31.8986 58.3789 31.8356V29.7763C57.9381 29.7763 57.5707 29.8183 57.2664 29.8919C56.9725 29.9654 56.7311 30.0705 56.5526 30.1966C56.3742 30.3226 56.2482 30.4697 56.1748 30.6378C56.1013 30.8059 56.0593 30.974 56.0593 31.1527C56.0593 31.3523 56.0908 31.5309 56.1433 31.6675C56.1958 31.8041 56.2692 31.9196 56.3637 32.0142C56.4582 32.0982 56.5736 32.1718 56.6996 32.2033C56.8465 32.2453 56.983 32.2663 57.1299 32.2663Z" fill="#C6DBFF"/>
</g>
</g>
<defs>
<clipPath id="clip0_6108_2735">
<rect width="60" height="60" fill="white" transform="translate(0.5)"/>
</clipPath>
<clipPath id="clip1_6108_2735">
<rect width="60" height="13.4503" fill="white" transform="translate(0 23)"/>
</clipPath>
</defs>
</svg>
